<?xml version="1.0" encoding="utf-8" ?>
<svg baseProfile="full" height="300mm" version="1.1" viewBox="0,0,200,300" width="200mm" xmlns="http://www.w3.org/2000/svg" xmlns:ev="http://www.w3.org/2001/xml-events" xmlns:xlink="http://www.w3.org/1999/xlink"><defs /><rect fill="#222222" height="300" width="200" x="0" y="0" /><text fill="#FFFFFF" style="font-size:12px; font-family:Arial; font-weight:bold;" x="10" y="20">Over 10km Runs</text><text fill="#FFFFFF" style="font-size:4px; font-family:Arial" x="10" y="280">ATHLETE</text><text fill="#FFFFFF" style="font-size:9px; font-family:Arial" x="10" y="290">MQ0707</text><text fill="#FFFFFF" style="font-size:4px; font-family:Arial" x="120" y="280">STATISTICS</text><text fill="#FFFFFF" style="font-size:3px; font-family:Arial" x="120" y="285">Number: 1</text><text fill="#FFFFFF" style="font-size:3px; font-family:Arial" x="120" y="290">Weekly: 1.0</text><text fill="#FFFFFF" style="font-size:3px; font-family:Arial" x="141" y="285">Total: 11.2 km</text><text fill="#FFFFFF" style="font-size:3px; font-family:Arial" x="141" y="290">Avg: 11.2 km</text><text fill="#FFFFFF" style="font-size:3px; font-family:Arial" x="167" y="285">Min: 11.2 km</text><text fill="#FFFFFF" style="font-size:3px; font-family:Arial" x="167" y="290">Max: 11.2 km</text><polyline fill="none" points="64.62048725388013,143.95590721949702 55.82794562447816,136.76061684940942 47.26801091688685,133.16293370275525 41.54588065017015,136.92414730018936 35.35853654076345,138.5594489320647 32.28812517807819,132.01821103034308 30.799440881004557,125.3133553507505 29.915534579893574,116.48243568424368 30.61335534392856,108.36003542738035 34.00941639649682,106.39755695301574 40.75501711736433,104.38055733940564 39.77806804724969,99.5288229797734 40.28980327467434,90.479397680494 43.54630017420277,87.91718190599931 49.45451597799547,86.00914054160239 52.15275626629591,83.71948150510434 50.66407196922228,79.3036815499072 47.82626752811484,80.06690895976499 47.77974614384584,81.86594048945699 49.5940801310353,85.30043764965376 51.920149345183745,83.44690236548195 51.1292858121451,80.17594135389663 52.19927765056491,80.66658683971036 53.455355026293546,84.59173377568368 54.525346864713356,85.02785935282009 69.1330615291372,79.41271410684567 70.156531983288,79.68529539724113 74.38997795293108,76.9049594157259 81.22862144256942,74.83332669764059 83.18251958233304,73.36137203371618 86.2994523292873,73.03427042166004 93.9289593512658,69.21806948550511 98.34849085798487,69.0 105.9779978801962,90.58842785435263 104.76844188896939,90.97003327909624 101.13977391505614,86.17268722323934 98.6276191638317,86.55429594370071 97.37154178810306,88.73491173970979 95.04547257395461,89.44360987108666 94.39417319418862,91.13357837393414 98.53457639506087,96.42150825168937 101.18629529909231,96.91213814832736 103.41932174470276,96.09442139230669 103.18671482335776,94.45898395718541 104.34974943031557,91.5151833918062 103.69845005031675,90.2068221445661 101.88411606359296,90.64294293231796 101.27933806786314,93.04160061536822 103.14019343908876,98.76562462054426 97.97631978383288,101.38229996699374 90.99811214162037,103.56285252678208 85.50858879624866,106.45207034575287 82.85686989221722,109.12321946659358 83.83381896209903,111.30373901693383 83.41512650367804,115.77377502707532 91.74245429015718,140.46729422762292 101.13977391505614,147.00842406740412 117.4222584136296,161.67115284950705 117.9339936405886,163.30637535999995 121.46961884619668,164.88708548399154 143.61379776406102,183.03764821606455 146.17247389955446,185.98092202818953 151.05721924919635,189.36021552199963 151.52243309211917,189.8507562703453 150.49896263796836,190.77733195654582 147.5681154280901,192.52146987162996 148.5450644979719,193.23002420121338 151.56895447615534,192.03093168407213 151.94112555054016,191.15886263357243 151.01069786492735,190.66832313931081 148.4055003451649,191.43138437147718 147.6146368123591,192.68498249625554 149.0102783406619,193.23002420121338 151.47591170761734,192.0854359504301 151.66199724492617,190.88634075043956 150.49896263796836,190.61381872202037 150.35939848492853,192.24894871440483 151.66199724492617,191.32237569364952 150.31287710089236,190.39580099494196 151.52243309211917,189.8507562703453 164.31581376935355,200.31551352195675 167.15361821069382,205.27529765840154 170.08446542010643,217.15678277931875 164.73450622800738,219.17333772731945 163.38538608397357,220.3178653785726 161.71061624982394,220.26336411980446 153.5228526161518,224.78694883332355 138.31035995599814,231.0 136.0773335103877,227.56648104952183 133.28605045354925,211.97910529462388 130.4482460124418,206.9648834723048 128.49434787244536,206.14734264597064 127.9360912614502,204.34874823014252 120.21354147046804,208.10943843406858 116.81748041766696,208.65446370636346 114.07271874533035,207.01938614755636 108.86232370580547,196.1732393729617 100.86064560944214,184.50928723899415" stroke="#4DD2FF" stroke-linecap="round" stroke-linejoin="round" stroke-width="0.5"><title>2021-03-13 11.2km</title></polyline></svg>