<?xml version="1.0" encoding="utf-8" ?>
<svg baseProfile="full" height="300mm" version="1.1" viewBox="0,0,200,300" width="200mm" xmlns="http://www.w3.org/2000/svg" xmlns:ev="http://www.w3.org/2001/xml-events" xmlns:xlink="http://www.w3.org/1999/xlink"><defs /><rect fill="#222222" height="300" width="200" x="0" y="0" /><text fill="#FFFFFF" style="font-size:12px; font-family:Arial; font-weight:bold;" x="10" y="20">Over 10km Runs</text><text fill="#FFFFFF" style="font-size:4px; font-family:Arial" x="10" y="280">ATHLETE</text><text fill="#FFFFFF" style="font-size:9px; font-family:Arial" x="10" y="290">MQ0707</text><text fill="#FFFFFF" style="font-size:4px; font-family:Arial" x="120" y="280">STATISTICS</text><text fill="#FFFFFF" style="font-size:3px; font-family:Arial" x="120" y="285">Number: 2</text><text fill="#FFFFFF" style="font-size:3px; font-family:Arial" x="120" y="290">Weekly: 1.0</text><text fill="#FFFFFF" style="font-size:3px; font-family:Arial" x="141" y="285">Total: 21.2 km</text><text fill="#FFFFFF" style="font-size:3px; font-family:Arial" x="141" y="290">Avg: 10.6 km</text><text fill="#FFFFFF" style="font-size:3px; font-family:Arial" x="167" y="285">Min: 10.0 km</text><text fill="#FFFFFF" style="font-size:3px; font-family:Arial" x="167" y="290">Max: 11.2 km</text><polyline fill="none" points="76.41365816921461,85.97060481298831 70.55196374969091,81.17374456624384 64.84534061118029,78.77528913517017 61.03058710007463,81.2827648667735 56.90569102705922,82.3729659547098 54.8587501187576,78.01214068688569 53.866293920669705,73.54223690048093 53.27702305326238,67.65495712283882 53.74223689583596,62.240023618214764 56.006277597742155,60.93170463532442 60.503344744909555,59.587038226251025 59.85204536491074,56.352548653201666 60.19320218311623,50.319598453643266 62.36420011613518,48.61145460398984 66.30301065195818,47.339427027705824 68.10183751094155,45.81298767004046 67.10938131285366,42.86912103326176 65.21751168533228,43.37793930649059 65.18649742926937,44.57729365961859 66.39605342061259,46.866958433092805 67.94676623004489,45.63126824362553 67.41952387464698,43.45062756925472 68.13285176700447,43.77772455979721 68.97023668407928,46.39448918378912 69.68356457643677,46.685239568556426 79.4220410194248,42.94180940455408 80.10435465548653,43.12353026482742 82.92665196862072,41.269972943817265 87.4857476282632,39.88888446506462 88.78834638814442,38.907581355801085 90.8663015528582,38.68951361440122 95.95263956754934,36.145379656984005 98.89899390528444,36.0 103.985331920092,50.392285236215685 103.17896125919651,50.64668885272113 100.75984927662648,47.44845814880682 99.08507944247685,47.702863962447736 98.24769452540204,49.15660782647319 96.69698171585333,49.62907324737171 96.26278212934267,50.755718915956095 99.02305093000177,54.28100550113595 100.7908635326894,54.60809209890431 102.27954782987945,54.062947594880825 102.12447654886637,52.97265597144724 102.8998329534661,51.01012226118473 102.46563336683903,50.13788142972044 101.25607737561222,50.42862862156471 100.85289204516448,52.027733743569115 102.09346229268704,55.843749747029506 98.65087985584978,57.58819997799583 93.9987414276693,59.041901684511686 90.33905919757672,60.96804689714918 88.57124659465626,62.74881297771935 89.22254597477149,64.20249267792678 88.94341766904108,67.18251668469748 94.49496952665504,83.64486281838617 100.75984927662648,88.00561604494578 111.61483894241974,97.78076856635744 111.9559957603924,98.87091690668603 114.31307923072018,99.92472365600406 129.07586517592426,112.0250988107 130.78164926636964,113.98728135213605 134.03814616601449,116.24014368132339 134.34828872804064,116.56717084688717 133.6659750918625,117.18488797100144 131.71207695198245,118.34764658109634 132.36337633198127,118.82001613412285 134.37930298410356,118.02062112270505 134.62741703365464,117.43924175569555 134.00713190995157,117.11221542619751 132.27033356332686,117.62092291432782 131.7430912081618,118.45665499748429 132.6735188937746,118.82001613412285 134.3172744717449,118.05695730025764 134.44133149646223,117.25756050026393 133.6659750918625,117.07587914797477 133.57293232320808,118.16596580960322 134.44133149646223,117.54825046242331 133.54191806714516,116.93053399660857 134.34828872804064,116.56717084688717 142.87720917956904,123.5436756812851 144.7690788070904,126.85019843891496 146.72297694673762,134.77118851954583 143.15633748529945,136.11555848486023 142.25692405598238,136.878576919029 141.14041083317716,136.8422427464975 135.68190174398478,139.85796588886296 125.54023997054901,144.0 124.05155567359179,141.71098736635759 122.19070030236617,131.31940352972015 120.2988306748448,127.97658898151712 118.99623191496357,127.43156176398043 118.624060840928,126.23249882008531 113.47569431364536,128.73962562269298 111.21165361185558,129.1029758042423 109.38181249680929,128.0129240983806 105.9082158037927,120.78215958195506 100.57376373955049,113.00619149266277" stroke="#4dd2ff" stroke-linecap="round" stroke-linejoin="round" stroke-width="0.5"><title>2021-03-13 11.2km</title></polyline><polyline fill="none" points="133.8347957918886,221.24006105371518 134.97316275327466,222.40502103301696 134.40397927258164,225.07757082988974 133.32885492034256,225.76283878594404 135.668831451796,227.0648465277045 135.98504449636675,230.4226476532058 137.62935232929885,231.93022793484852 138.83096189959906,231.9987542538438 139.5898732068017,230.7652797474875 141.67687930259854,231.1764380959794 143.0682166996412,228.1612727025058 140.5385123414453,226.99631984945154 140.9812106040772,223.50145263702143 139.02068972610869,223.22734485572437 137.75583754712716,221.0344797312864 136.42774275899865,221.171533951303 135.668831451796,216.58020671422128 132.69642883073539,214.93554673192557 130.6094227351714,204.8619416129659 129.47105577378534,204.65635671210475 129.59754099184647,209.65890988212777 128.90187229332514,209.59038193622837 126.56189576187171,196.56998164387187 124.09543401258998,189.37441996793495 124.09543401258998,184.50881850358564 133.20236970228143,181.8361534702708 134.2774940545205,179.30054116353858 133.51858274708502,172.85868456598837 136.8071984127164,172.92721518763574 137.9455653738696,175.18872289557476 139.84284364292398,176.14814876567107 144.3963114877697,173.40692939813016 140.91796799516305,176.21667914750287 139.40014538005926,176.28520952432882 137.75583754712716,175.18872289557476 137.1234114577528,173.2698682200862 133.26561231119558,173.20133762352634 133.0758844842203,181.01379347097827 124.15867662150413,184.16616956453072 122.13491313485429,183.34381160192424 118.78305486007594,179.23201100638835 118.65656964224763,172.7216233080835 119.85817921231501,169.7062705809949 119.09926790511236,169.7062705809949 116.44307832885534,164.9776297956705 113.53391831694171,164.01819253264694 113.53391831694171,160.79721742094262 112.26906613749452,161.55106364854146 108.4745096003171,159.9748390293098 109.67611917038448,156.13706369436113 102.15024870471098,156.0 98.98811825644225,158.67273843847215 96.26868607173674,158.39861176873092 89.12227125954814,160.24896523967618 84.50556080578826,158.53567511355504 83.2407086265739,159.28952315356582 73.05864858441055,178.88936014543287 69.64354770071805,191.15618322358932 66.60790247097611,191.635888139077 66.79763029771857,200.06494888750603 69.83327552769333,209.3847980684368 72.11000945023261,212.74266228382476 71.85703901434317,213.97616041474976 80.07857817877084,223.84408725140383 81.02721731294878,226.3795795197948 88.23687473405153,235.8362201565178 85.32771472190507,238.91988677473273 85.4541999399662,240.08482486766297 79.2564242624212,246.0465442989953 82.54503992805257,250.22657792986138 87.98390429816209,260.8478913414874 92.6006147521548,257.96986986888805 92.6006147521548,255.91413485747762 90.07091039395891,253.78987062862143 88.8693008236587,248.78755205404013 83.68340688897297,240.22187631303677 87.60444864444435,237.4808436104213 94.3714078029152,247.00589792139363 96.58489911654033,252.69347431202186 93.73898171330802,245.224240415846 83.8098921070341,232.82106969325105 78.054814692121,238.64578348468058 72.61595032177866,240.97565890679834 64.96359463804401,237.6864213399822 60.030671139480546,237.4808436104213 55.60368851246312,238.7143093146733 62.686860715737566,237.54936952528078 68.8846363935154,238.78283513960196 72.48946510371752,240.97565890679834 80.2683060055133,249.81542790407548 84.69528863276355,260.0941246636212 87.47796342661604,264.0 89.50172691326588,263.9314760109992 95.63625998212956,259.6829789484618 97.47029564180411,254.54364235536195 92.47412953409366,243.64815596479457 87.92066168948077,238.234628399543 95.00383389228955,248.17082600522554 90.00766778481193,239.74219616642222 88.17363212513737,238.57725764944917 94.30816519400105,246.86884746374562 94.30816519400105,248.23935114161577 92.34764431626536,248.30787627317477 92.15791648929007,247.2114735704381 90.57685126550496,247.1429483590182 87.35147820878774,244.60751203203108 85.2012295043096,241.11271022248548 81.02721731294878,237.4808436104213 81.72288601147011,238.16610253456747 83.49367906223051,237.4808436104213 81.84937122953124,238.37168011441827 83.68340688897297,237.06968801637413 87.35147820878774,237.27526583592407 95.50977476430126,248.5134516377584 97.91299390420318,255.77708569716197 96.0157156358473,259.4088817052543 90.82982170116156,262.97213964082766" stroke="#4dd2ff" stroke-linecap="round" stroke-linejoin="round" stroke-width="0.5"><title>2021-07-07 10.0km</title></polyline></svg>