<?xml version="1.0" encoding="utf-8" ?>
<svg baseProfile="full" height="200mm" version="1.1" viewBox="0,0,200,200" width="200mm" xmlns="http://www.w3.org/2000/svg" xmlns:ev="http://www.w3.org/2001/xml-events" xmlns:xlink="http://www.w3.org/1999/xlink"><defs /><rect fill="#1a1a1a" height="200" width="200" x="0" y="0" /><text alignment-baseline="middle" fill="#e1ed5e" style="dominant-baseline: central; font-size:9.0px; font-family:Arial;" text-anchor="middle" x="100.0" y="100.0">2021</text><line stroke="#e1ed5e" stroke-width="0.3" x1="100.0" x2="100.0" y1="15.0" y2="10.0" /><path d="M 100.0 14.0 a86.0,86.0 0 0,1 42.46469731375804,11.215312516191453" fill="none" id="id1" stroke="none" /><text fill="#e1ed5e" style="font-size:6.75px; font-family:Arial;" text-anchor="middle"><textPath startOffset="22.20632615414155" xlink:href="#id1">January</textPath></text><line stroke="#e1ed5e" stroke-width="0.3" x1="143.23703022742887" x2="145.7803849466894" y1="26.81831364943548" y2="22.513508569990506" /><path d="M 143.74570117128098 25.957352633546492 a86.0,86.0 0 0,1 28.547481713284135,27.462654790039103" fill="none" id="id2" stroke="none" /><text fill="#e1ed5e" style="font-size:6.75px; font-family:Arial;" text-anchor="middle"><textPath startOffset="19.985693538727396" xlink:href="#id2">February</textPath></text><path d="M 115.19652480421416 85.50635884689758 l 27.619595685535437 -26.342108726655482 a59.167378191321795,59.167378191321795 0 0,0 0.6965766362965198,0.7430593881997124 l -28.06893964380242 25.862779921577715" fill="#6eff28" stroke="none" /><path d="M 116.15771136456269 86.58626213691792 l 12.540090915766088 -10.410477605895496 a37.29821843510912,37.29821843510912 0 0,0 0.40584281691837715,0.49751530614709677 l -12.717432224760874 10.193078130140298" fill="#ff4e07" stroke="none" /><line stroke="#e1ed5e" stroke-width="0.3" x1="172.23445277983987" x2="176.4835382374775" y1="55.19839476539836" y2="52.563006222186495" /><path d="M 173.08426987136738 54.67131705675599 a86.0,86.0 0 0,1 12.851231095245387,41.99856678651699" fill="none" id="id3" stroke="none" /><text fill="#e1ed5e" style="font-size:6.75px; font-family:Arial;" text-anchor="middle"><textPath startOffset="22.20632615414155" xlink:href="#id3">March</textPath></text><path d="M 119.7369772167798 92.82701384747503 l 59.21093165033941 -21.518958457574904 a84.0,84.0 0 0,0 0.4821876767607618,1.3632094942935418 l -59.57257240790998 20.496551336854747" fill="#4dd2ff" stroke="none" /><path d="M 120.6074358757038 95.95851677861258 l 16.77170851829971 -3.2892291394013116 a38.091203437859306,38.091203437859306 0 0,0 0.12064803914626147,0.644506649395467 l -16.825842281355833 3.0000444125432817" fill="#ff5b08" stroke="none" /><path d="M 120.67395015179393 96.31383870115 l 27.511415862046217 -4.90528010770321 a48.94529970620242,48.94529970620242 0 0,0 0.14074835888534948,0.8307047814491042 l -27.59177608245179 4.430989537938268" fill="#f9ff18" stroke="none" /><path d="M 120.94382443527127 98.46500227214037 l 20.68234801041859 -1.5158338106257885 a41.737822242595826,41.737822242595826 0 0,0 0.0463476832123855,0.7169781453254522 l -20.705376284635392 1.159596601047301" fill="#ff970d" stroke="none" /><line stroke="#e1ed5e" stroke-width="0.3" x1="184.98032266829074" x2="189.97916517819016" y1="98.17113171792111" y2="98.06355123074" /><path d="M 185.9800911702706 98.14961562048488 a86.0,86.0 0 0,1 -9.607161424134198,41.387399972396054" fill="none" id="id4" stroke="none" /><text fill="#e1ed5e" style="font-size:6.75px; font-family:Arial;" text-anchor="middle"><textPath startOffset="21.466115282336823" xlink:href="#id4">April</textPath></text><path d="M 120.99824983174949 100.27111621757518 l 25.673232573093603 0.331476659431919 a46.675372393168956,46.675372393168956 0 0,0 -0.017287529553714365,0.8032835683181039 l -25.66372298085488 -0.7733500435401377" fill="#ffe315" stroke="none" /><path d="M 120.81339534386255 102.79330883721812 l 35.9450070576944 4.824081040565676 a57.26727574913293,57.26727574913293 0 0,0 -0.13953021473325516,0.975873996865415 l -35.856642791944545 -5.4421005094115005" fill="#86ff25" stroke="none" /><line stroke="#e1ed5e" stroke-width="0.3" x1="174.80103733775053" x2="179.2010983576182" y1="140.37084112569926" y2="142.7455964860345" /><path d="M 175.68104954172406 140.8457921977663 a86.0,86.0 0 0,1 -30.038265399797805,32.042727171017184" fill="none" id="id5" stroke="none" /><text fill="#e1ed5e" style="font-size:6.75px; font-family:Arial;" text-anchor="middle"><textPath startOffset="22.206326154141568" xlink:href="#id5">May</textPath></text><path d="M 111.7513745106137 117.40417183066458 l 28.300488888760793 41.913954071240276 a71.573681072559,71.573681072559 0 0,0 -1.0269981434037414,0.680638368950899 l -27.574816046617087 -42.39489046128249" fill="#3aff95" stroke="none" /><line stroke="#e1ed5e" stroke-width="0.3" x1="143.8653032363475" x2="146.44561519142675" y1="172.8068346515853" y2="177.08958963109032" /><path d="M 144.38136562736335 173.6633856474863 a86.0,86.0 0 0,1 -40.68145358897372,12.25698825130547" fill="none" id="id6" stroke="none" /><text fill="#e1ed5e" style="font-size:6.75px; font-family:Arial;" text-anchor="middle"><textPath startOffset="21.466115282336833" xlink:href="#id6">June</textPath></text><path d="M 110.8373102113329 117.98757091392108 l 6.085939978484375 10.101332785175561 a32.7930313939452,32.7930313939452 0 0,0 -0.48601166553193653,0.28714425864450177 l -5.911160441924057 -10.204595616113812" fill="#ff0000" stroke="none" /><path d="M 107.93186726928326 119.44442032107085 l 6.87724970146366 16.859098785739256 a39.20784927781414,39.20784927781414 0 0,0 -0.6270995345783288,0.24953584666814724 l -6.586029090843466 -16.974981476813472" fill="#ff6e0a" stroke="none" /><path d="M 107.59598834532513 119.57807347666477 l 8.35539042956474 21.535373715642315 a44.09945606075693,44.09945606075693 0 0,0 -0.7100637782102716,0.2684853631768341 l -7.9834564305941935 -21.67600732892578" fill="#ffbc11" stroke="none" /><path d="M 107.2578585660854 119.70592522655815 l 6.735032536881195 18.286392103366776 a40.4872470972922,40.4872470972922 0 0,0 -0.6560484871980515,0.23523564642206465 l -6.4192644890534085 -18.3996152908288" fill="#ff830c" stroke="none" /><path d="M 106.91757812671514 119.82793768551818 l 7.071620406640744 20.269470931887234 a42.46763300958537,42.46763300958537 0 0,0 -0.6922836261759617,0.2348601929161866 l -6.721667047527555 -20.388194111701544" fill="#ffa20f" stroke="none" /><path d="M 106.57524785965236 119.94407469862006 l 5.90519136304676 17.911655981357534 a39.859976273280495,39.859976273280495 0 0,0 -0.653473286479621,0.20922151032454034 l -5.595996731476199 -18.01065033834178" fill="#ff780b" stroke="none" /><path d="M 106.2309692047433 120.05430185196036 l 6.034896946060308 19.423245569828325 a41.3391850774662,41.3391850774662 0 0,0 -0.6813584043598759,0.20528769796541235 l -5.699663567260186 -19.52424863689946" fill="#ff900d" stroke="none" /><path d="M 105.88484417918355 120.15858648285463 l 5.702706555733335 19.534672421189164 a41.3500439474703,41.3500439474703 0 0,0 -0.6849710231823671,0.19357965314195583 l -5.365604364446362 -19.62994086766964" fill="#ff900d" stroke="none" /><path d="M 105.53697534728816 120.25689768951611 l 7.405938458385765 27.094456492360766 a49.08838722792442,49.08838722792442 0 0,0 -0.8169933563395052,0.21577537094632787 l -6.938454659234762 -27.21792321261068" fill="#f7ff19" stroke="none" /><path d="M 105.18746579009965 120.34920634021253 l 3.5676201840594577 13.994933596957416 a35.44250948280651,35.44250948280651 0 0,0 -0.592475073066515,0.14561595811283842 l -3.3261918262497314 -14.054270813384283" fill="#ff2e04" stroke="none" /><path d="M 104.83641907484287 120.43548508189849 l 7.904545166188319 33.39934201795415 a55.32197374156371,55.32197374156371 0 0,0 -0.9285657637961136,0.21133854468941965 l -7.328459252999343 -33.53045729622126" fill="#a0ff22" stroke="none" /><path d="M 104.13013068566511 120.58985236759428 l 3.5406150004472248 17.650952402722417 a39.00255746566482,39.00255746566482 0 0,0 -0.6593890959447221,0.1263734895970812 l -3.2362582899307983 -17.709283090667967" fill="#ff6a09" stroke="none" /><path d="M 103.06178313531738 120.77559828337769 l 7.078933102825214 48.033797274135225 a69.55262067537647,69.55262067537647 0 0,0 -1.1859430891371447,0.1643609058163691 l -6.251061422501239 -48.14853274544419" fill="#37ff7a" stroke="none" /><path d="M 102.70371172650421 120.8252237178851 l 3.574508105073533 27.532495509718306 a48.76356276103438,48.76356276103438 0 0,0 -0.8333288299641979,0.10090451605947218 l -3.1000518520579545 -27.589945554503128" fill="#fcff18" stroke="none" /><path d="M 101.98527174616119 120.90594882070398 l 2.664024397364536 28.053568896098003 a49.17977561652808,49.17977561652808 0 0,0 -0.843446459070884,0.07277610952624607 l -2.18073362055211 -28.095269257902913" fill="#f6ff19" stroke="none" /><path d="M 101.26447882468166 120.96189622390904 l 1.7231823358558416 28.56605313906854 a49.617979476313366,49.617979476313366 0 0,0 -0.852984886293534,0.04408957548081466 l -1.231209381148828 -28.591482521311555" fill="#efff19" stroke="none" /><line stroke="#e1ed5e" stroke-width="0.3" x1="102.19456741930631" x2="102.32365962044197" y1="184.97166512339345" y2="189.96999836594603" /><path d="M 102.22038585953345 185.97133177190398 a86.0,86.0 0 0,1 -42.740103519485714,-10.115201625700543" fill="none" id="id7" stroke="none" /><text fill="#e1ed5e" style="font-size:6.75px; font-family:Arial;" text-anchor="middle"><textPath startOffset="22.20632615414155" xlink:href="#id7">July</textPath></text><path d="M 100.54218724476979 120.99299961872073 l 0.7207249007059584 27.905816139490316 a48.9151216868839,48.9151216868839 0 0,0 -0.8418998453069143,0.01449406933758596 l -0.24026536550637612 -27.914087686107063" fill="#f9ff18" stroke="none" /><path d="M 100.18074693466247 120.99922214144158 l 0.140247798247071 16.294022776862942 a37.294626344222856,37.294626344222856 0 0,0 -0.6419894658190417,0.0 l 0.1402477982470598 -16.294022776862942" fill="#ff4e07" stroke="none" /><path d="M 99.81925306533755 120.99922214144158 l -0.24674733601459015 28.66716457159265 a49.668226468036124,49.668226468036124 0 0,0 -0.8548618655756274,-0.014717222271485635 l 0.7401688914828854 -28.658669872042005" fill="#eeff19" stroke="none" /><path d="M 99.45781275523022 120.99299961872073 l -0.861813178265919 33.36862660874115 a54.37975379938895,54.37975379938895 0 0,0 -0.9355380156506063,-0.0322218208602471 l 1.4360715455911683 -33.34884798945482" fill="#acff20" stroke="none" /><path d="M 99.09653310690486 120.98055641714683 l -1.2404984316214056 28.807195403533647 a49.833892268929375,49.833892268929375 0 0,0 -0.8566966526895379,-0.04428143140618263 l 1.7361831527244325 -28.78157416536526" fill="#ecff1a" stroke="none" /><path d="M 98.37488393609728 120.93702456842531 l -4.36226832750342 56.200859234427 a77.36990299485194,77.36990299485194 0 0,0 -1.3269147713991256,-0.11449178984249063 l 5.329027416644088 -56.11744319230584" fill="#43ffdf" stroke="none" /><path d="M 98.01472825383883 120.90594882070398 l -2.787339428007636 29.35214060268355 a50.484189306247345,50.484189306247345 0 0,0 -0.86440327911043,-0.08959893421156041 l 3.2921753037236594 -29.29981230001623" fill="#e3ff1b" stroke="none" /><line stroke="#e1ed5e" stroke-width="0.3" x1="58.666819895761336" x2="56.23545636021788" y1="174.27360380694188" y2="178.64263932499728" /><path d="M 58.180547188652646 175.14741091055294 a86.0,86.0 0 0,1 -31.652253787137756,-30.449443065178592" fill="none" id="id8" stroke="none" /><text fill="#e1ed5e" style="font-size:6.75px; font-family:Arial;" text-anchor="middle"><textPath startOffset="22.20632615414155" xlink:href="#id8">August</textPath></text><line stroke="#e1ed5e" stroke-width="0.3" x1="26.63291911575756" x2="22.317208475507996" y1="142.92168965132927" y2="145.44649492493687" /><path d="M 25.769776987707644 143.4266507060508 a86.0,86.0 0 0,1 -11.730757126820373,-40.83630448921669" fill="none" id="id9" stroke="none" /><text fill="#e1ed5e" style="font-size:6.75px; font-family:Arial;" text-anchor="middle"><textPath startOffset="21.46611528233685" xlink:href="#id9">September</textPath></text><line stroke="#e1ed5e" stroke-width="0.3" x1="15.007084014347285" x2="10.007500721073583" y1="101.09737516637583" y2="101.16192664675087" /><path d="M 14.007167355692545 101.11028546245083 a86.0,86.0 0 0,1 10.666146001902534,-42.60595125391555" fill="none" id="id10" stroke="none" /><text fill="#e1ed5e" style="font-size:6.75px; font-family:Arial;" text-anchor="middle"><textPath startOffset="22.20632615414155" xlink:href="#id10">October</textPath></text><line stroke="#e1ed5e" stroke-width="0.3" x1="26.266209847984243" x2="21.928928074336255" y1="57.711370442889674" y2="55.22380399835377" /><path d="M 25.398753493254645 57.213857153982495 a86.0,86.0 0 0,1 29.58750427330803,-30.492523968695096" fill="none" id="id11" stroke="none" /><text fill="#e1ed5e" style="font-size:6.75px; font-family:Arial;" text-anchor="middle"><textPath startOffset="21.46611528233685" xlink:href="#id11">November</textPath></text><line stroke="#e1ed5e" stroke-width="0.3" x1="56.762969772571076" x2="54.21961505331055" y1="26.818313649435495" y2="22.513508569990535" /><path d="M 56.25429882871897 25.957352633546506 a86.0,86.0 0 0,1 42.265352541879196,-11.944610805530505" fill="none" id="id12" stroke="none" /><text fill="#e1ed5e" style="font-size:6.75px; font-family:Arial;" text-anchor="middle"><textPath startOffset="22.20632615414155" xlink:href="#id12">December</textPath></text></svg>